<?xml version="1.0" encoding="utf-8"?>
<!-- Generator: Adobe Illustrator 16.0.0, SVG Export Plug-In . SVG Version: 6.00 Build 0)  -->
<!DOCTYPE svg PUBLIC "-//W3C//DTD SVG 1.1//EN" "http://www.w3.org/Graphics/SVG/1.1/DTD/svg11.dtd">
<svg version="1.1" id="Layer_1" xmlns="http://www.w3.org/2000/svg" xmlns:xlink="http://www.w3.org/1999/xlink" x="0px" y="0px"
	 width="410px" height="229px" viewBox="0 0 410 229" enable-background="new 0 0 410 229" xml:space="preserve">
<g>
	<path fill="#7E6829" d="M171.966,42.352c0,0-0.489,0.206-1.407,0.589c-0.918,0.36-2.25,0.905-3.987,1.492
		c-1.737,0.583-3.858,1.254-6.353,1.84c-2.492,0.572-5.379,1.063-8.612,0.918c-1.607-0.084-3.33-0.366-4.98-1.148
		c-1.648-0.758-3.171-2.137-3.992-3.911c-0.192-0.442-0.427-0.877-0.54-1.348l-0.208-0.698l-0.051-0.176l-0.024-0.124l-0.005-0.042
		l-0.011-0.084l-0.044-0.337c-0.036-0.471-0.167-0.857-0.125-1.406c0.034-0.524,0.032-1.08,0.123-1.59
		c0.351-2.041,1.433-3.847,2.682-5.437c2.531-3.222,5.979-5.593,9.548-7.688c3.604-2.067,7.488-3.695,11.439-5.046
		c3.951-1.361,7.966-2.489,11.95-3.443c3.982-0.965,7.947-1.696,11.795-2.314c3.845-0.629,7.596-1.006,11.151-1.324
		c3.557-0.294,6.93-0.467,10.044-0.531c3.114-0.083,5.975-0.011,8.502,0.079c2.532,0.119,4.737,0.248,6.547,0.427
		c1.812,0.137,3.229,0.343,4.194,0.459c0.968,0.121,1.482,0.185,1.482,0.185c0.563,0.07,0.961,0.582,0.889,1.144
		c-0.066,0.547-0.557,0.939-1.101,0.894l-0.035-0.004c0,0-0.509-0.043-1.465-0.125c-0.952-0.083-2.351-0.215-4.136-0.307
		c-1.782-0.127-3.951-0.194-6.439-0.243c-2.49-0.027-5.3,0.007-8.361,0.117c-6.123,0.225-13.26,0.862-20.816,2.107
		c-3.778,0.616-7.67,1.34-11.569,2.293c-3.902,0.942-7.826,2.054-11.664,3.385c-3.832,1.345-7.595,2.854-11.149,4.604
		c-3.527,1.754-6.936,3.787-9.387,6.517c-1.184,1.366-2.187,2.9-2.482,4.558c-0.077,0.399-0.071,0.778-0.126,1.166
		c-0.042,0.181-0.014,0.408,0.024,0.639l0.092,0.677l0.045,0.337l0.011,0.084l0.006,0.042c0.014,0.086-0.014-0.07-0.006-0.041
		l0.046,0.149l0.182,0.595c0.095,0.408,0.298,0.756,0.456,1.126c0.686,1.455,1.873,2.511,3.241,3.143
		c1.37,0.643,2.887,0.899,4.354,0.967c2.955,0.099,5.704-0.473,8.076-1.083c2.382-0.614,4.412-1.358,6.057-2.02
		c1.646-0.662,2.917-1.237,3.767-1.654c0.836-0.424,1.282-0.65,1.282-0.65l0.046-0.023c0.616-0.312,1.368-0.065,1.68,0.55
		s0.066,1.367-0.55,1.679C172.021,42.327,171.993,42.341,171.966,42.352z"/>
	<path fill="#7E6829" d="M192.86,15.658c-0.002,0-0.954,3.564-2.514,8.868c-0.803,2.645-1.673,5.75-2.721,9.042
		c-1.033,3.295-2.133,6.811-3.235,10.327c-1.144,3.502-2.287,7.005-3.359,10.288c-0.525,1.645-1.086,3.219-1.589,4.719
		c-0.512,1.499-0.994,2.915-1.441,4.224c-0.915,2.607-1.68,4.779-2.215,6.3c-0.551,1.516-0.866,2.382-0.866,2.382
		c-0.193,0.531-0.782,0.805-1.312,0.612c-0.507-0.184-0.778-0.728-0.636-1.239c0,0,0.249-0.887,0.687-2.44
		c0.453-1.548,1.1-3.758,1.878-6.41c0.401-1.322,0.836-2.754,1.296-4.268c0.466-1.515,0.93-3.118,1.462-4.761
		c1.045-3.291,2.163-6.803,3.277-10.313c1.158-3.498,2.315-6.996,3.399-10.274c1.073-3.284,2.175-6.314,3.069-8.93
		c1.828-5.218,3.135-8.667,3.135-8.667c0.173-0.457,0.683-0.688,1.14-0.513C192.745,14.765,192.973,15.226,192.86,15.658z"/>
	<path fill="#7E6829" d="M188.289,71.521c0,0,0.455-1.362,1.35-3.677c0.913-2.311,2.239-5.6,4.048-9.457
		c1.853-3.829,4.111-8.284,7.269-12.646c0.814-1.074,1.646-2.164,2.602-3.188c0.926-1.048,1.947-2.043,3.078-2.963
		c1.102-0.917,2.413-1.779,3.727-2.38c1.375-0.606,2.835-1.268,4.77-1.037c0.96,0.121,2.019,0.71,2.618,1.551
		c0.619,0.826,0.874,1.715,1.022,2.535c0.269,1.644,0.137,3.154-0.064,4.602c-0.439,2.89-1.236,5.562-2.05,8.115
		c-0.409,1.274-0.836,2.516-1.257,3.719c-0.423,1.196-0.761,2.288-1.025,3.427c-0.537,2.231-0.838,4.434-0.584,6.262
		c0.121,0.907,0.39,1.706,0.805,2.223c0.396,0.54,0.94,0.806,1.582,0.938c1.306,0.237,2.733-0.152,3.811-0.518
		c1.092-0.397,1.949-0.785,2.526-1.063c0.576-0.286,0.883-0.438,0.883-0.438l0.033-0.016c0.419-0.208,0.925-0.035,1.132,0.382
		c0.195,0.396,0.049,0.872-0.321,1.098c0,0-0.31,0.186-0.89,0.538c-0.585,0.349-1.46,0.838-2.656,1.349
		c-0.607,0.246-1.29,0.503-2.092,0.695c-0.792,0.201-1.722,0.326-2.779,0.203c-1.044-0.108-2.282-0.657-3.076-1.657
		c-0.826-0.975-1.217-2.168-1.429-3.337c-0.404-2.362-0.137-4.792,0.364-7.273c0.266-1.225,0.648-2.517,1.06-3.723
		c0.401-1.202,0.803-2.424,1.185-3.669c0.761-2.485,1.467-5.083,1.851-7.683c0.202-1.29,0.299-2.6,0.177-3.742
		c-0.079-0.557-0.223-1.056-0.419-1.383c-0.202-0.322-0.438-0.503-0.866-0.617c-0.886-0.221-2.216,0.1-3.407,0.545
		c-1.284,0.464-2.384,1.068-3.46,1.865c-2.152,1.542-3.898,3.611-5.461,5.663c-3.078,4.181-5.382,8.531-7.133,12.336
		c-1.768,3.804-3.003,7.085-3.807,9.395c-0.811,2.311-1.208,3.636-1.208,3.636c-0.157,0.53-0.715,0.831-1.245,0.673
		c-0.529-0.158-0.832-0.716-0.673-1.246c0.002-0.009,0.005-0.018,0.007-0.026L188.289,71.521z"/>
	<path fill="#7E6829" d="M210.79,4.03c0,0-1.097,4.314-2.897,10.737c-0.922,3.205-1.927,6.964-3.135,10.954
		c-0.592,1.999-1.203,4.063-1.824,6.162c-0.633,2.095-1.236,4.235-1.905,6.355c-1.313,4.247-2.628,8.493-3.861,12.476
		c-0.635,1.985-1.247,3.905-1.829,5.725c-0.586,1.818-1.141,3.538-1.651,5.125c-1.051,3.165-1.929,5.803-2.542,7.648
		c-0.633,1.841-0.993,2.894-0.993,2.894c-0.17,0.497-0.713,0.762-1.209,0.592c-0.477-0.164-0.74-0.669-0.612-1.149
		c0,0,0.288-1.074,0.79-2.954c0.522-1.875,1.267-4.552,2.16-7.766c0.461-1.602,0.961-3.338,1.489-5.175
		c0.532-1.834,1.094-3.769,1.676-5.77c1.199-3.992,2.479-8.25,3.758-12.509c0.627-2.133,1.32-4.245,1.968-6.336
		c0.653-2.087,1.299-4.142,1.921-6.131c1.225-3.983,2.49-7.666,3.512-10.838c2.092-6.335,3.589-10.527,3.589-10.527
		c0.155-0.434,0.634-0.662,1.068-0.506C210.668,3.184,210.895,3.618,210.79,4.03z"/>
	<path fill="#7E6829" d="M227.777,59.94c0,0,0.375-0.142,1.084-0.454c0.708-0.311,1.742-0.786,3.012-1.487
		c1.267-0.699,2.801-1.568,4.455-2.712c1.632-1.17,3.429-2.561,5.137-4.305c1.717-1.732,3.378-3.779,4.692-6.139
		c0.159-0.302,0.318-0.606,0.477-0.913c0.119-0.29,0.237-0.546,0.347-0.837c0.2-0.593,0.359-1.188,0.402-1.75
		c0.041-1.13-0.298-1.978-1.262-2.526c-0.959-0.57-2.424-0.669-3.855-0.433c-1.442,0.259-2.917,0.786-4.294,1.553
		c-2.776,1.533-5.127,3.915-7.062,6.543c-0.228,0.327-0.504,0.674-0.691,0.987l-0.679,1.061c-0.458,0.705-0.918,1.418-1.268,2.133
		c-0.777,1.407-1.462,2.886-1.997,4.377c-1.065,2.971-1.562,6.098-0.935,8.831c0.293,1.361,0.861,2.604,1.623,3.624
		c0.382,0.504,0.829,0.958,1.286,1.271l0.169,0.119l0.043,0.03c-0.024-0.01,0.077,0.048-0.046-0.021l0.031,0.016l0.123,0.065
		l0.478,0.257c0.264,0.091,0.462,0.215,0.78,0.299c2.361,0.774,4.938,0.503,7.15-0.143c2.233-0.672,4.193-1.723,5.837-2.798
		c0.409-0.273,0.806-0.539,1.189-0.794c0.363-0.286,0.716-0.561,1.056-0.825c0.692-0.509,1.305-1.015,1.839-1.496
		c1.111-0.916,1.896-1.741,2.46-2.272c0.563-0.537,0.864-0.822,0.864-0.822l0.034-0.032c0.312-0.298,0.812-0.287,1.109,0.027
		c0.277,0.292,0.287,0.741,0.038,1.043c0,0-0.273,0.329-0.784,0.946c-0.513,0.619-1.262,1.525-2.332,2.589
		c-0.517,0.547-1.103,1.146-1.803,1.736c-0.347,0.301-0.706,0.613-1.076,0.938c-0.399,0.299-0.81,0.608-1.236,0.927
		c-1.721,1.239-3.785,2.59-6.376,3.426c-2.562,0.84-5.677,1.282-8.867,0.276c-0.381-0.099-0.832-0.314-1.253-0.489l-0.489-0.263
		l-0.121-0.067l-0.13-0.078l-0.072-0.05l-0.283-0.202c-0.759-0.54-1.361-1.184-1.892-1.889c-1.059-1.409-1.721-3.089-2.04-4.816
		c-0.632-3.498,0.236-7.019,1.55-10.175c0.675-1.587,1.479-3.106,2.406-4.582c0.438-0.765,0.931-1.436,1.401-2.129l0.714-1.039
		c0.262-0.396,0.524-0.699,0.788-1.053c2.1-2.734,4.6-5.189,7.515-7.071c1.463-0.926,3.037-1.72,4.763-2.183
		c1.712-0.426,3.636-0.612,5.539,0.223c0.939,0.409,1.805,1.175,2.328,2.126c0.537,0.95,0.69,2.011,0.66,2.964
		c-0.042,0.955-0.263,1.827-0.557,2.629c-0.15,0.403-0.342,0.815-0.517,1.196c-0.187,0.345-0.311,0.593-0.559,1.006
		c-1.6,2.646-3.634,4.712-5.62,6.391c-2.004,1.671-3.943,3.028-5.725,4.12c-1.759,1.127-3.372,1.968-4.701,2.644
		c-2.672,1.313-4.295,1.936-4.292,1.937l-0.008,0.001c-0.404,0.156-0.859-0.046-1.015-0.451c-0.157-0.405,0.048-0.859,0.45-1.015
		L227.777,59.94z"/>
</g>
<g>
	<path fill="#7E6829" d="M149.733,199.257c0-0.218,0.071-0.291,0.291-0.291c0.292,0,1.971,0.108,4.305,0.108
		c3.064,0,4.012-0.108,4.304-0.108c0.219,0,0.292,0.073,0.292,0.255v0.911c0,0.185-0.073,0.292-0.292,0.292h-0.875
		c-0.875,0-1.823,0.365-2.662,1.679c-1.205,1.936-3.393,7.624-4.415,10.03c-0.729,1.607-5.107,12.259-5.472,13.025
		c-0.146,0.288-0.438,0.472-0.729,0.472c-0.438,0-0.62-0.399-0.801-0.84c-1.242-3.1-4.306-11.451-5.546-14.843
		c-0.947-2.629-2.554-7.3-2.955-8.355c-0.328-0.803-0.766-1.168-1.568-1.168h-0.875c-0.146,0-0.218-0.107-0.218-0.328v-0.839
		c0-0.218,0.072-0.291,0.218-0.291c0.363,0,1.605,0.108,5.398,0.108c3.43,0,5.107-0.108,5.398-0.108
		c0.292,0,0.366,0.108,0.366,0.291v0.802c0,0.258-0.073,0.365-0.292,0.365h-1.751c-0.948,0-1.532,0.365-1.532,0.911
		c0,0.296,0,0.73,0.108,1.241c0.255,1.312,1.641,5.618,2.372,7.734c0.51,1.384,2.481,7.149,3.063,9.118h0.075v-0.074
		c0.875-2.041,3.208-8.093,3.573-9.191c0.583-1.715,2.846-7.221,2.846-8.717c0-0.438-0.364-1.022-1.386-1.022h-0.984
		c-0.146,0-0.255-0.146-0.255-0.328V199.257z"/>
	<path fill="#7E6829" d="M167.309,214.87c-0.292,0.839-2.079,6.057-2.262,7.041c-0.072,0.292-0.072,0.581-0.072,0.763
		c0,0.477,0.583,0.879,1.313,0.879h1.533c0.291,0,0.364,0.072,0.364,0.178v0.915c0,0.219-0.073,0.364-0.292,0.364
		c-0.511,0-2.043-0.106-4.596-0.106c-2.699,0-3.502,0.106-4.011,0.106c-0.219,0-0.219-0.22-0.219-0.474v-0.694
		c0-0.217,0.072-0.289,0.219-0.289h1.093c1.021,0,1.677-0.514,2.333-1.642c0.367-0.659,2.992-7.222,4.086-10.286
		c0.255-0.729,3.21-8.61,3.576-9.56c0.072-0.366,0.291-1.021,0.072-1.239c-0.109-0.109-0.221-0.327-0.221-0.439
		c0-0.146,0.074-0.291,0.367-0.364c1.167-0.293,3.174-1.385,3.611-1.821c0.219-0.218,0.365-0.366,0.547-0.366
		c0.217,0,0.364,0.438,0.438,0.656c0.657,2.262,3.502,10.432,4.159,12.771c0.876,2.843,3.21,9.627,3.72,10.613
		c0.656,1.238,1.605,1.678,2.334,1.678h1.168c0.217,0,0.292,0.072,0.292,0.255v0.765c0,0.218-0.074,0.438-0.366,0.438
		c-0.657,0-1.386-0.106-5.397-0.106c-3.064,0-4.305,0.106-5.107,0.106c-0.292,0-0.366-0.22-0.366-0.438v-0.73
		c0-0.217,0.074-0.289,0.293-0.289h0.947c1.022,0,1.315-0.366,1.097-1.35c-0.293-1.314-1.752-5.983-2.19-7.333H167.309z
		 M175.409,213.412c-0.364-1.058-2.846-9.374-3.065-10.105c-0.145-0.438-0.219-0.659-0.366-0.659c-0.218,0-0.363,0.148-0.473,0.475
		c-0.145,0.479-3.429,9.45-3.683,10.29H175.409z"/>
	<path fill="#7E6829" d="M195.137,202.248c0-1.24-0.291-1.824-1.24-1.824h-1.677c-0.219,0-0.292-0.071-0.292-0.328v-0.839
		c0-0.218,0.074-0.291,0.365-0.291c0.365,0,2.114,0.108,5.617,0.108c3.064,0,4.815-0.108,5.254-0.108c0.219,0,0.29,0.073,0.29,0.255
		v0.911c0,0.221-0.071,0.292-0.29,0.292h-1.532c-1.094,0-1.751,0.658-1.787,1.422c-0.037,0.441-0.11,2.627-0.11,4.744v4.523
		c0,1.824,0.038,4.412,0.11,5.583c0.107,1.674,0.4,3.353,1.275,4.522c1.238,1.674,3.213,2.259,4.963,2.259
		c1.678,0,3.721-0.655,4.886-1.751c1.388-1.386,2.115-3.503,2.115-6.164V209c0-2.922-0.293-6.131-0.398-6.972
		c-0.111-0.946-0.693-1.604-1.497-1.604h-1.312c-0.219,0-0.291-0.107-0.291-0.255v-0.912c0-0.218,0.072-0.291,0.291-0.291
		c0.365,0,2.04,0.108,4.452,0.108c2.259,0,3.425-0.108,3.717-0.108c0.331,0,0.364,0.108,0.364,0.291v0.839
		c0,0.221-0.033,0.328-0.218,0.328h-1.312c-1.315,0-1.462,1.022-1.532,1.422c-0.071,0.441-0.071,5.545-0.071,6.021
		c0,0.51-0.075,6.855-0.221,8.316c-0.218,2.992-1.097,5.252-3.063,7.003c-1.532,1.386-3.866,2.26-6.641,2.26
		c-1.753,0-3.866-0.288-5.253-0.874c-2.115-0.875-3.576-2.552-4.305-4.888c-0.512-1.604-0.656-4.014-0.656-8.789V202.248z"/>
	<path fill="#7E6829" d="M248.171,217.386c0.073,0.074,0.073,0.146,0.073,0.366c-0.145,0.219-1.605,6.273-1.826,7.258
		c-0.948-0.036-11.454-0.106-15.174-0.106c-3.282,0-4.595,0.106-5.032,0.106c-0.29,0-0.29-0.071-0.29-0.328v-0.84
		c0-0.217,0-0.289,0.22-0.289h1.454c1.314,0,1.535-0.514,1.535-0.986c0-0.655,0.144-9.776,0.144-11.967v-2.041
		c0-2.336-0.071-6.199-0.144-6.821c-0.074-0.948-0.221-1.313-1.169-1.313h-1.534c-0.216,0-0.286-0.217-0.286-0.328v-0.839
		c0-0.218,0.07-0.291,0.286-0.291c0.366,0,1.681,0.108,5.034,0.108c3.939,0,5.475-0.108,5.765-0.108c0.292,0,0.367,0.146,0.367,0.33
		v0.836c0,0.146-0.075,0.292-0.367,0.292h-1.969c-1.096,0-1.24,0.365-1.24,1.352c0,0.512-0.148,5.98-0.148,8.535v3.136
		c0,0.658,0,8.536,0.148,10.106h2.043c2.041,0,4.669,0,6.127-0.183c2.043-0.293,4.38-4.672,4.889-6.057
		c0.146-0.146,0.218-0.222,0.439-0.146L248.171,217.386z"/>
	<path fill="#7E6829" d="M260.825,200.607h-1.021c-1.169,0-3.793,0-5.327,0.509c-1.166,0.515-2.552,2.922-3.244,4.16
		c-0.111,0.182-0.219,0.33-0.403,0.257l-0.728-0.257c-0.146-0.075-0.183-0.184-0.146-0.364c0.364-1.386,1.603-6.203,1.75-6.711
		c0.072-0.513,0.291-0.657,0.437-0.657c0.221,0,0.364,0.145,0.585,0.363c0.728,0.73,1.458,0.911,2.479,0.948
		c1.974,0.074,3.504,0.219,7.079,0.219h1.97c4.013,0,5.543-0.145,7.222-0.219c0.693-0.037,2.079-0.548,2.627-0.948
		c0.293-0.219,0.438-0.363,0.658-0.363c0.218,0,0.288,0.145,0.363,0.583c0.073,0.656,0.802,5.18,1.09,6.93
		c0.042,0.22-0.031,0.293-0.141,0.331l-0.733,0.252c-0.143,0.036-0.216-0.071-0.325-0.29c-0.51-1.022-1.86-3.355-2.882-4.086
		c-1.021-0.583-4.307-0.656-5.62-0.656h-1.017v19.441c0,2.773,0.363,3.504,1.235,3.504h2.12c0.144,0,0.217,0.145,0.217,0.327v0.766
		c0,0.219-0.073,0.364-0.366,0.364c-0.362,0-1.529-0.106-5.47-0.106c-3.724,0-5.254,0.106-5.763,0.106
		c-0.221,0-0.291-0.071-0.291-0.328v-0.84c0-0.217,0.107-0.289,0.255-0.289h2.075c0.732,0,1.17-0.439,1.209-0.986
		c0.107-0.948,0.107-12.11,0.107-12.84V200.607z"/>
</g>
<path fill="#7E6829" d="M82.931,82.996c-14.218-5.83-28.463-4.426-41.843,1.053c1.791-6.021,4.097-11.821,6.654-17.071
	C55.784,50.452,66.65,40.757,78.44,36.95l-0.015-0.004c0.227-0.076,0.451-0.14,0.676-0.211c0.017-0.005,0.032-0.011,0.049-0.016
	c16.296-5.141,29.407,1.443,30.237,1.875c0.855,0.401,1.737,0.801,2.622,1.253c1.018,0.614,2.065,1.247,3.134,1.892
	c0.992,0.759,2.039,1.496,3.047,2.312c0.934,0.899,1.965,1.739,2.868,2.723c0.438,0.506,0.879,1.015,1.323,1.525l0.665,0.769
	c0.207,0.27,0.393,0.557,0.589,0.835c0.77,1.127,1.617,2.219,2.229,3.462l1.003,1.818c0.296,0.625,0.545,1.275,0.821,1.911
	c0.256,0.645,0.576,1.265,0.779,1.93l0.607,1.987c0.467,1.307,0.642,2.682,0.928,4.021l0.197,1.005l0.097,1.015
	c0.064,0.676,0.127,1.349,0.191,2.017c0.094,0.667,0.073,1.334,0.059,1.998c-0.01,0.662-0.019,1.32-0.028,1.974
	c-0.009,0.314,0,0.672-0.023,0.949c-0.035,0.32-0.048,0.677-0.103,0.96c-0.083,0.586-0.202,1.198-0.359,1.782
	c-0.308,1.175-0.74,2.286-1.286,3.282c-1.058,2.011-2.741,3.452-4.483,3.674c-0.211,0.06-0.432,0.048-0.646,0.057l-0.321,0.012
	l-0.025,0l-0.086-0.008l-0.189-0.021c-0.254-0.027-0.505-0.052-0.751-0.08c-0.187-0.051-0.367-0.101-0.548-0.151
	c-0.728-0.23-1.416-0.584-1.889-1.065c-0.963-0.969-1.336-2.216-1.418-3.232c-0.093-1.024,0.081-1.825,0.246-2.297
	c0.157-0.486,0.306-0.667,0.291-0.682l-0.028-0.027c0.158-0.236,0.276-0.5,0.282-0.804c0.017-0.844-0.655-1.544-1.498-1.561
	c-0.687-0.014-1.255,0.435-1.462,1.053c-0.003,0.007-0.009,0.013-0.011,0.02c0,0-0.041,0.107-0.119,0.316
	c-0.081,0.209-0.196,0.521-0.275,0.921c-0.179,0.803-0.322,1.976-0.084,3.42c0.226,1.419,0.888,3.219,2.497,4.622
	c0.797,0.709,1.807,1.192,2.937,1.478c0.293,0.058,0.591,0.114,0.893,0.172c0.249,0.015,0.5,0.03,0.754,0.046l0.192,0.01
	l0.096,0.006l0.023,0.001c-0.007,0,0.152,0.006,0.097,0.003l0.058-0.004l0.456-0.034c0.306-0.026,0.613-0.038,0.919-0.127
	c1.232-0.246,2.424-0.884,3.376-1.756c0.957-0.875,1.728-1.936,2.333-3.094c0.606-1.158,1.062-2.41,1.38-3.719
	c0.162-0.657,0.281-1.321,0.367-2.031c0.054-0.362,0.058-0.664,0.088-1.001c0.024-0.383,0.005-0.687,0.008-1.037
	c0.041-2.715-0.104-5.526-0.587-8.339c-0.294-1.398-0.479-2.832-0.96-4.2l-0.632-2.08c-0.213-0.693-0.542-1.346-0.807-2.021
	c-0.288-0.666-0.549-1.345-0.858-2.001l-1.044-1.907c-0.643-1.304-1.521-2.452-2.326-3.634c-0.208-0.293-0.402-0.594-0.619-0.876
	l-0.694-0.809c-0.46-0.539-0.92-1.076-1.376-1.608c-0.929-1.049-1.988-1.952-2.957-2.913c-1.044-0.874-2.125-1.67-3.158-2.484
	c-1.112-0.698-2.2-1.381-3.259-2.046c-1.101-0.59-2.208-1.1-3.259-1.625c-1.057-0.524-2.156-0.836-3.165-1.253
	c-1.01-0.425-2.02-0.697-2.981-0.95c-0.964-0.248-1.861-0.544-2.74-0.711c-1.757-0.287-3.325-0.625-4.569-0.74
	c-0.027-0.003-0.049-0.005-0.077-0.006c-1.144-0.16-2.312-0.275-3.505-0.307c-0.199-0.018-0.308-0.027-0.308-0.027
	c-0.018-0.002-0.043-0.004-0.061-0.005c-0.058-0.002-0.109,0.022-0.167,0.027c-0.236-0.001-0.471-0.014-0.713-0.006
	c-23.617,0.756-46.47,15.296-58.198,47.328c-1.201,3.279-2.471,6.538-3.508,9.868C24,93.135,14.895,99.743,9.738,104.085
	l1.299,1.664c0,0,9.164-7.472,17.522-12.205c-7.496,26.642-7.367,54.597-10.027,69.216c-2.111,11.595-5.588,15.735-7.62,17.204
	h-0.001c0,0-0.604,0.365-1.57,0.789c-0.028,0.005-0.046,0.01-0.046,0.01l0.006,0.01c-0.682,0.296-1.533,0.621-2.5,0.874
	c-2.271,0.597-2.988,4.338,2.563,5.057c0.188,0.023,0.428,0.051,0.762,0.086c0.01,0.001,0.019,0.004,0.03,0.004h0.004
	c7.072,0.732,44.983,3.545,72.226-16.802C112.544,147.469,109.423,93.863,82.931,82.996z M51.067,180.412
	c-3.618,0.687-7.09,1.243-10.383,1.703c-2.728,0.315-10.39,0.907-16.573,0.269c1.28-2.521,5.679-9.358,7.256-23.339
	c1.672-14.833,1.349-19.728,1.934-31.054c0.395-7.648,2.476-24.187,6.623-39.804c5.264-1.971,10.989-3.385,16.824-3.556
	c21.763-0.638,29.31,14.797,30.243,40.088C87.923,150.011,74.948,175.893,51.067,180.412z"/>
<path fill="#7E6829" d="M404.581,144.017c-0.091-0.22-0.11-0.357-0.257-0.636l-0.266-0.484c-0.208-0.329-0.5-0.771-0.772-1.041
	c-0.536-0.63-1.192-1.052-1.812-1.46c-1.274-0.754-2.595-1.134-3.799-1.316c-1.21-0.171-2.324-0.121-3.258,0.063
	c-0.93,0.197-1.676,0.496-2.166,0.756c-0.488,0.281-0.749,0.43-0.749,0.43c-0.238,0.138-0.46,0.335-0.626,0.571
	c-0.627,0.883-0.417,2.107,0.468,2.732c0.884,0.625,2.107,0.416,2.733-0.468c0,0,0.082-0.119,0.239-0.34
	c0.176-0.214,0.488-0.519,1.011-0.8c0.521-0.289,1.281-0.503,2.198-0.552c0.913-0.042,1.995,0.117,3.04,0.601
	c0.506,0.258,1.023,0.573,1.437,1.002c0.235,0.221,0.354,0.383,0.556,0.647l0.271,0.482c0.033,0.045,0.107,0.275,0.161,0.404
	c0.46,1.223,0.598,2.742,0.333,4.218c-0.139,0.782-0.296,1.352-0.693,2.171c-0.144,0.268-0.417,0.647-0.618,0.969
	c-0.229,0.328-0.412,0.688-0.711,0.977c-0.567,0.596-1.072,1.246-1.739,1.769l-0.949,0.832l-1.026,0.757
	c-1.36,1.021-2.861,1.879-4.348,2.7c-1.503,0.797-2.998,1.619-4.467,2.324c-1.465,0.69-2.879,1.359-4.224,1.992
	c-1.218,0.563-2.339,1.124-3.435,1.599c1.269-8.232,1.622-14.279,1.624-14.304c1.661-17.009,2.74-31.47,2.74-31.47
	c0.604-15.164,1.605-29.885,1.605-29.885l-16.832,2.036c0,0-1.134,25.809-2.441,43.446v0.003c-0.235,3.145-0.475,6.035-0.712,8.465
	c-0.042,0.436-0.099,0.855-0.149,1.278c-0.005,0.168,0.003,0.333-0.013,0.498c-0.004,0.089-0.013,0.179-0.02,0.266
	c-0.603,6.83-2.306,11.695-5.017,14.56c-0.042,0.053-0.079,0.115-0.122,0.164c-1.729,2.004-4.263,2.888-6.934,2.879
	c-0.013,0-0.027,0.005-0.041,0.005c-0.027,0-0.056-0.005-0.082-0.005c-0.119-0.002-0.241-0.004-0.362-0.009
	c-6.764-0.106-12.034-3.461-12.398-11.91c-0.366-8.532,3.863-33.394,3.959-33.952c0.735-7.794,0.786-15.146-1.381-19.924
	c-2.87-6.332-10.559-11.114-20.149-6.76c-0.252,0.112-0.505,0.216-0.752,0.336c-0.013,0.007-0.025,0.011-0.039,0.018
	c0,0,0.009-0.003,0.011-0.003c-2.708,1.327-5.113,3.257-7.274,5.368c0.487,0.697,0.999,1.381,1.527,2.056
	c2.034-1.852,4.794-3.519,8.151-3.552c5.935,0.239,5.048,9.072,3.396,21.299c-1.663,12.362-2.758,25.488-2.758,25.488l0.002-0.007
	c-0.306,3.15-0.497,4.852-0.473,7.624h-0.002c0,0-0.343,5.343,2.546,10.375c-1.596,2.961-5.031,6.269-5.4,6.616
	c-1.251,1.16-2.79,2.378-4.403,3.156c-3.082,1.484-7.176,2.015-8.172,2.171c-4.272,0.466-9.429-0.316-15.317-3.143
	c-17.258-8.285-15.608-25.287-15.608-25.287l0.007,0.003c0.07-4.371,1.145-8.546,3.286-11.537c3.216-4.498,6.228-6.278,8.044-6.984
	c0.015-0.007,0.024-0.01,0.038-0.014c0.142-0.057,0.271-0.1,0.395-0.139c0.9-0.241,1.344,0.152,1.344,0.152v-4.007
	c-0.571,0.736-2.346,0.132-2.346,0.132c-2.989-0.979-7.973-3.602-9.512-10.388c-2.495-10.995,2.164-17.125,8.186-18.41
	c6.015-1.285,10.765,4.647,10.964,8.584v0.008c0.68,3.542-0.298,7.157-0.298,7.157l10.331-1.194
	c-0.428-7.564-3.265-13.463-12.252-16.386c-3.771-1.227-8.22-1.232-12.292-0.123c0.007-0.005,0.017-0.018,0.017-0.018
	s-8.372,1.835-12.942,8.537c-4.572,6.701-2.286,14.361,1.693,18.271c0.271,0.269,0.576,0.526,0.9,0.777l-0.014-0.005
	c0,0,2.891,2.497,8.677,4.173c2.917,0.845,4.765,1.161,5.879,1.269c-4.067,0.714-16.499,4.109-22.357,19.506
	c-0.127,0.33-0.23,0.655-0.343,0.98l-0.005-0.002c0,0-0.06,0.164-0.155,0.462c-0.985,3.014-1.447,5.951-1.436,8.766
	c-0.095,3.479,0.365,7.542,2.173,11.506c0.083,0.186,0.179,0.355,0.266,0.537c-1.797,2.383-4.615,4.975-9.493,4.925
	c-5.215-0.236-5.919-12.319-4.47-24.456c1.463-12.269,2.423-25.293,2.423-25.293l-0.003,0.01
	c1.25-14.562,0.185-29.953-11.226-30.649c-17.215-1.05-22.071,13.964-25.972,26.772c0,0,3.312-24.17-13.254-24
	c-10.529,0.106-17.087,13.226-17.087,13.226l1.558,1.355c0,0,5.377-8.303,10.87-8.797c6.744-0.606,5.102,10.652,3.86,28.896
	c-1.241,18.239-5.149,48.273-5.149,48.273l14.995-0.55c0,0,3.73-35.857,6.217-51.68c2.485-15.819,7.9-25.182,14.907-26.231
	c4.925-0.737,6.433,3.276,6.679,10.752c-0.009,1.183-0.066,2.488-0.192,3.938c-0.573,6.65-1.013,13.768-2.251,24.36
	c-0.094,0.796-0.175,1.614-0.25,2.441l-0.001-0.006c0,0-1.341,13.626-0.532,21.612c0.81,7.985,4.671,14.823,13.557,15.044v-0.001
	c2.17,0.196,5.483-0.11,7.773-1.194c3.499-1.656,6.028-4.402,8.087-6.788c4.886,8.354,13.428,12.68,23.756,13.655
	c14.232,1.34,24.078-2.763,31.604-11.559c0.453-0.486,0.889-1.015,1.307-1.558c0.742-0.943,1.232-1.688,1.493-2.12
	c1.021-1.575,1.835-3.088,2.349-4.112c2.836,3.969,7.979,7.396,17.32,7.328l-0.011-0.015c6.356,0.157,13.268-1.864,18.368-7.073
	c-0.059,2.58-0.092,6.593-0.297,11.302c-4.014,1.442-8.907,2.951-14.802,4.348c-15.649,3.707-38.859,7.634-41.741,23.591
	c-3.354,18.548,18.556,25.045,37.18,20.076c18.623-4.968,25.564-18.189,30.793-34.625c1.914-6.011,3.268-12.303,4.218-17.87
	c0.34-0.151,0.671-0.302,1.03-0.454c1.195-0.558,2.463-1.272,3.815-1.968c1.348-0.713,2.768-1.46,4.239-2.232
	c1.454-0.776,2.897-1.653,4.4-2.536c1.479-0.923,2.99-1.855,4.426-2.938l1.074-0.815l1.012-0.905
	c0.698-0.567,1.265-1.298,1.869-1.962c0.324-0.317,0.529-0.738,0.796-1.102c0.256-0.396,0.501-0.702,0.757-1.173
	c0.361-0.688,0.719-1.719,0.854-2.558C405.252,147.37,405.145,145.613,404.581,144.017z M354.395,212.033
	c-11.489,10.426-31.598,1.782-31.598-9.815c0-11.593,11.195-18.396,27.405-22.337c5.665-1.375,10.542-2.961,14.645-4.514
	C364.085,188.486,361.823,205.289,354.395,212.033z"/>
<path fill="#7E6829" d="M195.207,147.983c-0.004-1.08-0.057-1.986-0.116-2.718c-0.002-0.009,0-0.023-0.004-0.03v0.001
	c-0.047-0.567-0.097-1.039-0.139-1.344c-0.024-0.192-0.049-0.361-0.073-0.541c-1.661-9.588-6.089-16.798-11.736-21.866
	c-1.141-0.982-2.244-1.932-3.287-2.824c-2.548-2.108-4.878-3.916-6.542-5.56c-0.235-0.199-0.481-0.407-0.698-0.588
	c-1.002-0.795-2.006-1.627-3.003-2.512c-6.621-5.893-9.274-13.477-9.508-17.186c-0.938,0.072-1.879,0.121-2.821,0.139
	c0,0.003-0.001,0.009-0.003,0.013l-1.026,0.048c0,0-3.939,21.955-8.635,37.841c-4.676,15.811-10.175,32.234-15.873,37.431
	c-0.737,0.496-1.542,0.775-2.48,0.697c-3.172-0.263-5.375-6.316-4.012-15.152c1.364-8.833,5.789-32.771,6.968-42.569
	c1.177-9.796,1.174-20.199-9.315-19.991c-10.488,0.208-13.874,10.676-13.874,10.676l1.738,1.686c0.716-1.47,2.939-7.154,7.161-7.239
	c4.219-0.086,2.433,6.338,1.439,14.239c-0.993,7.898-3.855,22.217-6.445,38.857c-2.528,16.244,1.356,24.168,11.572,25.092
	c6.908-0.145,11.619-6.527,13.905-10.524c0.002,0.001,0.006,0.006,0.01,0.012c0.32-0.517,0.914-1.481,1.082-1.846
	c0,0,4.331,10.582,17.2,14.656c1.781,0.482,3.894,0.921,6.223,1.207l-0.014,0.009c0,0,0.146,0.018,0.412,0.036
	c0.509,0.058,1.015,0.12,1.547,0.162c1.253-0.001,2.82-0.072,4.558-0.284c4.945-0.514,11.784-2.207,17.129-7.299
	c6.667-6.346,8.297-13.693,8.596-19.376c0-0.018,0.002-0.036,0.004-0.054c0.006-0.115,0.007-0.228,0.014-0.343
	c0.013-0.324,0.026-0.647,0.03-0.961C195.21,149.295,195.22,148.62,195.207,147.983z M168.143,173.664
	c-9.14-1.109-19.563-9.125-20.688-20.308c-0.016-0.137-0.03-0.274-0.042-0.415c-0.002-0.028-0.007-0.057-0.009-0.085
	c-0.002-0.029-0.002-0.056-0.004-0.085c-0.329-4.071,0.639-8.929,1.568-12.444c-0.004,0.002-0.008,0.005-0.013,0.008
	c0.02-0.06,0.039-0.124,0.058-0.187c0.114-0.422,0.228-0.833,0.335-1.212c1.259-4.645,2.841-9.696,2.892-9.866
	c1.093-4.092,2.039-7.898,2.858-11.409c0.069-0.388,0.048-0.569,0.212-1.305c2.206,5.192,7.344,8.263,11.724,11.438
	c5.201,3.774,10.599,7.014,14.536,12.009l0.002,0.001c0,0,6.736,7.398,6.548,18.314S177.419,174.789,168.143,173.664z"/>
</svg>
