<?xml version="1.0" encoding="utf-8"?>
<!-- Generator: Adobe Illustrator 16.0.0, SVG Export Plug-In . SVG Version: 6.00 Build 0)  -->
<!DOCTYPE svg PUBLIC "-//W3C//DTD SVG 1.1//EN" "http://www.w3.org/Graphics/SVG/1.1/DTD/svg11.dtd">
<svg version="1.1" id="Layer_1" xmlns="http://www.w3.org/2000/svg" xmlns:xlink="http://www.w3.org/1999/xlink" x="0px" y="0px"
	 width="36.125px" height="18.125px" viewBox="0 0 36.125 18.125" enable-background="new 0 0 36.125 18.125" xml:space="preserve">
<path fill="#90792D" d="M35.483,12.589l-0.002-0.051l-0.021-0.398c0.022-0.215-0.128-0.65-0.258-1.007
	c-0.129-0.381-0.354-0.598-0.537-0.891c-0.219-0.245-0.464-0.466-0.712-0.663c-1.02-0.725-2.313-0.962-3.37-0.754
	c-1.181,0.198-2.077,0.938-2.519,1.836c-0.122,0.218-0.159,0.467-0.23,0.688c-0.038,0.231-0.043,0.462-0.058,0.682l-0.001,0.01
	l0.007,0.075l0.003,0.016l0.006,0.035l0.013,0.068l0.023,0.134l0.047,0.263c0.081,0.221,0.178,0.436,0.273,0.631
	c0.44,0.686,1.044,0.999,1.514,1.216c0.486,0.202,0.895,0.27,1.173,0.291c0.279,0.015,0.429,0.022,0.429,0.022v-0.657
	c0,0-0.122-0.013-0.351-0.042c-0.224-0.031-0.561-0.109-0.94-0.296c-0.367-0.192-0.806-0.505-1.05-0.976
	c-0.03-0.11-0.069-0.209-0.121-0.314c-0.013-0.153-0.027-0.312-0.042-0.473c0.03-0.147,0.043-0.301,0.078-0.451
	c0.071-0.138,0.094-0.298,0.19-0.426c0.309-0.532,0.985-0.979,1.675-0.973c0.797-0.031,1.528,0.322,2.12,0.834
	c0.594,0.541,0.875,1.062,0.927,1.942c0.027,0.819-0.305,1.807-1.013,2.455l-0.261,0.25l-0.315,0.177
	c-0.213,0.106-0.414,0.27-0.647,0.304l-0.667,0.191c-0.245,0.042-0.529,0.045-0.791,0.07l-0.398,0.027l-0.1,0.009
	c0.073-0.007-0.033-0.009-0.04-0.012l-0.184-0.02l-0.727-0.07c-0.239-0.035-0.467-0.12-0.695-0.175
	c-0.233-0.051-0.453-0.129-0.663-0.233c-0.853-0.334-1.637-0.897-2.144-1.468c-0.496-0.692-1.03-1.388-1.362-2.077
	c-0.395-0.666-0.643-1.328-0.863-1.904c-0.193-0.586-0.34-1.098-0.422-1.521c-0.089-0.412-0.128-0.772-0.133-0.949
	c-0.002-0.047-0.003-0.07-0.003-0.107c0.708-0.27,1.373-0.779,1.994-1.537c0.634-0.773,0.952-1.621,0.952-2.541
	c0-0.684-0.22-1.267-0.66-1.746c-0.438-0.482-0.927-0.809-1.463-0.984c-0.537-0.173-1.077-0.261-1.621-0.261
	c-0.376,0-0.825,0.018-1.349,0.052c-0.522,0.036-0.979,0.053-1.37,0.053c-0.14,0-1.121-0.104-2.491,0.643
	c-0.033,0.017-0.053,0.036-0.068,0.059c-0.074,0.039-0.146,0.071-0.222,0.113c-0.197,0.133-0.4,0.271-0.61,0.414
	c-0.191,0.161-0.39,0.326-0.594,0.496c-0.38,0.363-0.789,0.742-1.179,1.131c-0.16,0.161-0.319,0.31-0.479,0.457
	c-0.234-0.72-0.598-1.371-1.111-1.942c-0.948-1.052-2.147-1.579-3.597-1.579c-1.27,0-2.503,0.397-3.702,1.192
	C3.553,2.72,2.573,3.784,1.813,5.114c-0.761,1.332-1.14,2.723-1.14,4.173c0,1.617,0.46,2.955,1.38,4.015
	c0.921,1.06,2.12,1.59,3.598,1.59c1.325,0,2.59-0.403,3.796-1.212c1.205-0.81,2.179-1.884,2.918-3.221
	c0.738-1.339,1.108-2.748,1.108-4.226c0-0.394-0.032-0.771-0.092-1.133c0.288-0.258,0.562-0.523,0.796-0.772
	c0.382-0.414,0.762-0.77,1.136-1.095c0.193-0.152,0.381-0.3,0.561-0.443c0.19-0.121,0.373-0.238,0.549-0.352
	c0.158-0.085,0.312-0.154,0.462-0.219c0.272-0.004,0.444,0.084,0.444,0.243c0,0.377-0.036,0.48-0.134,0.969l-1.652,8.364
	c-0.208,0.977-0.376,1.59-0.502,1.841c-0.069,0.168-0.254,0.29-0.554,0.366c-0.3,0.077-0.547,0.115-0.742,0.115
	c-0.028,0-0.059,0.049-0.095,0.146c-0.034,0.097-0.052,0.181-0.052,0.251c0,0.098,0.014,0.174,0.042,0.229
	c0.223-0.014,0.518-0.03,0.888-0.052s0.704-0.038,1.004-0.053c0.3-0.014,0.59-0.021,0.868-0.021c0.363,0,0.781,0.021,1.255,0.062
	c0.475,0.042,0.76,0.062,0.857,0.062c0.098-0.167,0.146-0.342,0.146-0.522c0-0.069-0.014-0.104-0.042-0.104
	c-0.125,0-0.335-0.057-0.627-0.167c-0.292-0.112-0.439-0.244-0.439-0.397c0-0.418,0.07-1.012,0.209-1.778l0.585-3.073
	c0.029-0.112,0.073-0.192,0.138-0.241c0.062-0.049,0.125-0.077,0.187-0.085c0.064-0.005,0.192-0.01,0.388-0.01
	c0.509,0,0.825,0.103,0.969,0.296c0.075,0.263,0.166,0.549,0.297,0.916c0.171,0.492,0.427,1.062,0.742,1.697
	c0.352,0.616,0.721,1.32,1.231,2.013c0.475,0.727,1.076,1.396,1.739,2.158c0.812,0.749,1.718,1.284,2.776,1.646
	c1.052,0.354,2.181,0.519,3.349,0.39c0.269-0.036,0.526-0.047,0.806-0.104l0.885-0.273c0.306-0.072,0.539-0.265,0.813-0.393
	l0.395-0.217l0.354-0.282c0.955-0.736,1.752-1.78,2.008-3.086l0.044-0.247l0.018-0.123l0.005-0.031l0.002-0.016
	C35.495,12.802,35.482,12.568,35.483,12.589z M8.639,3.744C8.635,3.767,8.676,3.62,8.685,3.565c0.032-0.326,0.225-0.498,0.356-0.682
	c0.103-0.031,0.175-0.132,0.272-0.156c0.098,0.001,0.19-0.094,0.29-0.059c0.188-0.017,0.314,0.023,0.446,0.049
	c0.063,0.078,0.135,0.145,0.192,0.232c0.438,0.687,0.677,1.547,0.737,2.565c-0.019,0.004-0.035,0.011-0.054,0.015
	c-0.522,0.103-1.062,0.032-1.467-0.171C9.048,5.16,8.8,4.852,8.71,4.544L8.652,4.312C8.661,4.248,8.647,4.195,8.629,4.14
	L8.639,3.744z M8.778,12.508c-0.762,0.892-1.622,1.339-2.583,1.339c-1.005,0-1.765-0.418-2.28-1.256
	c-0.516-0.836-0.773-1.896-0.773-3.179c0-2.05,0.474-3.838,1.422-5.364c0.883-1.421,1.925-2.173,3.122-2.27
	C7.312,2.15,7.005,2.633,6.926,3.173C6.894,3.371,6.833,3.472,6.834,3.756l0.015,0.4c0.033,0.208,0.068,0.421,0.129,0.626
	c0.071,0.187,0.158,0.36,0.246,0.537c0.42,0.695,1.174,1.122,1.884,1.24C9.77,6.674,10.4,6.58,10.988,6.426
	c-0.04,0.97-0.21,1.964-0.527,2.986C10.099,10.583,9.537,11.616,8.778,12.508z M18.723,6.861c0-0.015,0.003-0.027,0.011-0.042
	c0.005-0.015,0.01-0.028,0.01-0.042l0.837-4.392c0.041-0.209,0.153-0.349,0.334-0.418c0.182-0.07,0.564-0.105,1.15-0.105
	c0.571,0,1.019,0.161,1.339,0.481c0.32,0.321,0.48,0.794,0.48,1.423c0,0.989-0.27,1.837-0.805,2.541
	c-0.538,0.704-1.14,1.055-1.809,1.055C19.238,7.362,18.723,7.195,18.723,6.861z"/>
</svg>
